<svg xmlns="http://www.w3.org/2000/svg" viewBox="0 0 500 500" width="500" height="500">
  <path
    fill="#ffffff"
    d="M 298.5 150 L 322.5 150 L 332.5 152 Q 351.4 157.1 362 170.5 L 371 188.5 L 372 193.5 L 372 209.5 L 367 229.5 L 357 250.5 L 335 282 L 332 283.5 L 330 286.5 L 326 289.5 L 326.5 291 L 324 292.5 L 316.5 301 L 314 302.5 Q 314.7 305.1 312 304 L 312 306 L 310 306 L 310 308 Q 306.3 306.5 307 309.5 L 284.5 329 L 276 334 Q 277.1 336.7 274.5 336 L 269 339.5 Q 269.8 342.1 266.5 341 Q 258.8 349 248 353 Q 249.1 355.7 246.5 355 L 236.5 361 L 236 260 L 261.5 247 L 286 230 Q 284.9 227.3 287.5 228 L 297 219.5 L 299.5 216 Q 301.8 216.8 301 214.5 L 306 211 L 317 192.5 L 319 183.5 L 314.5 175 L 305.5 171 L 288.5 171 L 272.5 175 L 271.5 174 L 267.5 176 L 254.5 180 L 228.5 192 L 197 211.5 Q 197.8 213.8 195.5 213 L 193 214 Q 194.1 216.7 191.5 216 L 182 223.5 L 180.5 226 L 179 225.5 L 172.5 233 Q 170.3 232.3 171 234.5 L 166 241 L 163 242.5 L 163 245 Q 160.3 243.9 161 246.5 L 153 262.5 L 154 264.5 L 154 266.5 L 154 270.5 L 156 274 L 166.5 279 L 181.5 279 L 182.5 278 L 193.5 277 L 211.5 271 L 209.5 274 L 189.5 287 L 173.5 294 L 172 293.5 Q 172.8 296.1 169.5 295 L 156.5 299 L 154.5 299 L 138.5 300 L 130.5 298 L 122 290.5 L 119 280.5 L 123 264.5 L 136.5 243 Q 138.8 243.8 138 241.5 L 140.5 238 Q 142.8 238.8 142 236.5 L 148 229 L 162 218 L 163.5 215 L 167 214 L 169.5 210 L 178 204.5 Q 177.3 202.3 179.5 203 L 214.5 180 L 216 180.5 L 217.5 178 L 237.5 168 L 265.5 157 L 269.5 157 L 272.5 155 L 290.5 151 L 292.5 151 Q 297.3 152.3 298.5 150 Z"
  />
</svg>
