<svg width="500" height="500" version="1.1" xmlns="http://www.w3.org/2000/svg" desc="Created with imagetracer.js version 1.2.6" ><path fill="rgb(0,0,0)" stroke="rgb(0,0,0)" stroke-width="1" opacity="0" d="M 0 0 L 500 0 L 500 500 L 0 500 L 0 0 Z M 303 149 L 302 150 L 294 150 L 283 152 L 253 161 L 217 178 Q 180 198 152 225 L 128 254 Q 122 263 119 276 Q 117 288 123 294 Q 128 298 136 300 L 155 300 L 171 296 Q 193 288 210 275 L 214 270 L 185 278 L 166 278 L 159 275 L 154 269 L 154 262 L 157 254 L 167 240 Q 193 211 229 193 L 260 179 L 280 173 L 292 172 L 293 171 L 303 171 L 314 175 L 318 183 L 316 194 L 307 208 Q 278 240 237 260 L 235 261 L 235 362 Q 277 339 312 307 Q 336 285 354 257 L 366 234 L 371 219 L 372 208 L 373 207 L 373 196 L 371 186 L 362 170 Q 344 147 303 149 Z " /><path fill="rgb(237,237,237)" stroke="rgb(237,237,237)" stroke-width="1" opacity="0.8588235294117647" d="M 302.5 149 L 320 149.5 L 302.5 150 L 302.5 149 Z " /><path fill="rgb(237,237,237)" stroke="rgb(237,237,237)" stroke-width="1" opacity="0.8588235294117647" d="M 293.5 150 L 298 150.5 L 293.5 151 L 293.5 150 Z " /><path fill="rgb(237,237,237)" stroke="rgb(237,237,237)" stroke-width="1" opacity="0.8588235294117647" d="M 323.5 150 L 327 150.5 L 323.5 151 L 323.5 150 Z " /><path fill="rgb(237,237,237)" stroke="rgb(237,237,237)" stroke-width="1" opacity="0.8588235294117647" d="M 287.5 151 L 290 151.5 L 287.5 152 L 287.5 151 Z " /><path fill="rgb(237,237,237)" stroke="rgb(237,237,237)" stroke-width="1" opacity="0.8588235294117647" d="M 329.5 151 L 332 151.5 L 329.5 152 L 329.5 151 Z " /><path fill="rgb(237,237,237)" stroke="rgb(237,237,237)" stroke-width="1" opacity="0.8588235294117647" d="M 282.5 152 L 285 152.5 L 282.5 153 L 282.5 152 Z " /><path fill="rgb(237,237,237)" stroke="rgb(237,237,237)" stroke-width="1" opacity="0.8588235294117647" d="M 270.5 155 L 272 155.5 L 267.5 157 L 267.5 156 L 270.5 155 Z " /><path fill="rgb(237,237,237)" stroke="rgb(237,237,237)" stroke-width="1" opacity="0.8588235294117647" d="M 346.5 157 L 362 169.5 L 355.5 164 L 347.5 159 L 346.5 157 Z " /><path fill="rgb(237,237,237)" stroke="rgb(237,237,237)" stroke-width="1" opacity="0.8588235294117647" d="M 258.5 159 L 260 159.5 L 250.5 163 L 250.5 162 L 258.5 159 Z " /><path fill="rgb(237,237,237)" stroke="rgb(237,237,237)" stroke-width="1" opacity="0.8588235294117647" d="M 247.5 163 L 249 163.5 L 245.5 165 L 245.5 164 L 247.5 163 Z " /><path fill="rgb(237,237,237)" stroke="rgb(237,237,237)" stroke-width="1" opacity="0.8588235294117647" d="M 240.5 166 L 242 166.5 L 238.5 168 L 238.5 167 L 240.5 166 Z " /><path fill="rgb(237,237,237)" stroke="rgb(237,237,237)" stroke-width="1" opacity="0.8588235294117647" d="M 234.5 169 L 233.5 171 L 230.5 172 L 230.5 171 L 234.5 169 Z " /><path fill="rgb(237,237,237)" stroke="rgb(237,237,237)" stroke-width="1" opacity="0.8588235294117647" d="M 288.5 171 L 292 171.5 L 288.5 172 L 288.5 171 Z " /><path fill="rgb(237,237,237)" stroke="rgb(237,237,237)" stroke-width="1" opacity="0.8588235294117647" d="M 303.5 171 L 306 171.5 L 303.5 172 L 303.5 171 Z " /><path fill="rgb(237,237,237)" stroke="rgb(237,237,237)" stroke-width="1" opacity="0.8588235294117647" d="M 362.5 171 L 366 175.5 L 364 174.5 L 362.5 171 Z " /><path fill="rgb(237,237,237)" stroke="rgb(237,237,237)" stroke-width="1" opacity="0.8588235294117647" d="M 282.5 172 L 285 172.5 L 282.5 173 L 282.5 172 Z " /><path fill="rgb(237,237,237)" stroke="rgb(237,237,237)" stroke-width="1" opacity="0.8588235294117647" d="M 308.5 172 L 313 174.5 L 311.5 174 Q 307.7 173.8 308.5 172 Z " /><path fill="rgb(237,237,237)" stroke="rgb(237,237,237)" stroke-width="1" opacity="0.8588235294117647" d="M 224.5 174 L 223.5 176 L 218.5 178 L 218.5 177 L 224.5 174 Z " /><path fill="rgb(237,237,237)" stroke="rgb(237,237,237)" stroke-width="1" opacity="0.8588235294117647" d="M 271.5 174 L 272 176 L 270 175.5 L 271.5 174 Z " /><path fill="rgb(237,237,237)" stroke="rgb(237,237,237)" stroke-width="1" opacity="0.8588235294117647" d="M 273.5 174 L 276 174.5 L 273.5 175 L 273.5 174 Z " /><path fill="rgb(237,237,237)" stroke="rgb(237,237,237)" stroke-width="1" opacity="0.8588235294117647" d="M 268.5 175 L 267.5 177 L 266 176.5 L 268.5 175 Z " /><path fill="rgb(237,237,237)" stroke="rgb(237,237,237)" stroke-width="1" opacity="0.8588235294117647" d="M 314.5 175 L 315.5 177 L 314.5 175 Z " /><path fill="rgb(237,237,237)" stroke="rgb(237,237,237)" stroke-width="1" opacity="0.8588235294117647" d="M 366.5 177 L 369 181.5 L 368 181.5 L 366.5 177 Z " /><path fill="rgb(237,237,237)" stroke="rgb(237,237,237)" stroke-width="1" opacity="0.8588235294117647" d="M 216.5 178 L 216 179.5 L 215.5 181 L 215 179.5 L 216.5 178 Z " /><path fill="rgb(237,237,237)" stroke="rgb(237,237,237)" stroke-width="1" opacity="0.8588235294117647" d="M 254.5 180 L 257 180.5 L 250.5 183 L 250.5 182 L 254.5 180 Z " /><path fill="rgb(237,237,237)" stroke="rgb(237,237,237)" stroke-width="1" opacity="0.8588235294117647" d="M 209.5 182 L 207.5 185 L 206 184.5 L 209.5 182 Z " /><path fill="rgb(237,237,237)" stroke="rgb(237,237,237)" stroke-width="1" opacity="0.8588235294117647" d="M 369.5 183 L 371 187.5 L 370 187.5 L 369.5 183 Z " /><path fill="rgb(237,237,237)" stroke="rgb(237,237,237)" stroke-width="1" opacity="0.8588235294117647" d="M 245.5 184 L 247 184.5 L 241.5 187 L 241.5 186 L 245.5 184 Z " /><path fill="rgb(237,237,237)" stroke="rgb(237,237,237)" stroke-width="1" opacity="0.8588235294117647" d="M 204.5 185 L 202.5 188 L 195.5 192 L 196.5 190 L 204.5 185 Z " /><path fill="rgb(237,237,237)" stroke="rgb(237,237,237)" stroke-width="1" opacity="0.8588235294117647" d="M 238.5 187 L 240 187.5 L 220.5 198 L 221.5 196 L 238.5 187 Z " /><path fill="rgb(237,237,237)" stroke="rgb(237,237,237)" stroke-width="1" opacity="0.8588235294117647" d="M 317.5 187 L 318 189.5 L 317 189.5 L 317.5 187 Z " /><path fill="rgb(237,237,237)" stroke="rgb(237,237,237)" stroke-width="1" opacity="0.8588235294117647" d="M 371.5 189 L 372 192.5 L 371 192.5 L 371.5 189 Z " /><path fill="rgb(237,237,237)" stroke="rgb(237,237,237)" stroke-width="1" opacity="0.8588235294117647" d="M 193.5 192 L 192.5 194 L 193.5 192 Z " /><path fill="rgb(237,237,237)" stroke="rgb(237,237,237)" stroke-width="1" opacity="0.8588235294117647" d="M 190.5 194 L 189.5 196 L 190.5 194 Z " /><path fill="rgb(237,237,237)" stroke="rgb(237,237,237)" stroke-width="1" opacity="0.8588235294117647" d="M 372.5 195 L 373 206.5 L 372 206.5 L 372.5 195 Z " /><path fill="rgb(237,237,237)" stroke="rgb(237,237,237)" stroke-width="1" opacity="0.8588235294117647" d="M 187.5 196 L 184.5 200 L 179.5 203 L 180.5 201 L 187.5 196 Z " /><path fill="rgb(237,237,237)" stroke="rgb(237,237,237)" stroke-width="1" opacity="0.8588235294117647" d="M 218.5 198 L 217.5 200 L 215.5 201 L 216.5 199 L 218.5 198 Z " /><path fill="rgb(237,237,237)" stroke="rgb(237,237,237)" stroke-width="1" opacity="0.8588235294117647" d="M 313.5 198 L 312.5 200 L 313.5 198 Z " /><path fill="rgb(237,237,237)" stroke="rgb(237,237,237)" stroke-width="1" opacity="0.8588235294117647" d="M 213.5 201 L 212.5 203 L 209.5 205 L 211.5 202 L 213.5 201 Z " /><path fill="rgb(237,237,237)" stroke="rgb(237,237,237)" stroke-width="1" opacity="0.8588235294117647" d="M 311.5 201 L 310.5 203 L 311.5 201 Z " /><path fill="rgb(237,237,237)" stroke="rgb(237,237,237)" stroke-width="1" opacity="0.8588235294117647" d="M 177.5 203 L 178 204.5 L 174.5 207 L 177.5 203 Z " /><path fill="rgb(237,237,237)" stroke="rgb(237,237,237)" stroke-width="1" opacity="0.8588235294117647" d="M 309.5 204 L 308 206.5 L 306 211 L 301 214.5 Q 301.8 216.8 299.5 216 L 294.5 222 L 286 228 Q 287.1 230.7 284.5 230 L 278.5 235 L 281.5 231 L 287.5 227 L 307 207.5 L 309.5 204 Z " /><path fill="rgb(237,237,237)" stroke="rgb(237,237,237)" stroke-width="1" opacity="0.8588235294117647" d="M 204.5 205 L 206.5 206 L 208 205.5 L 193.5 216 L 193 214 L 197 213 L 198.5 210 L 205 206.5 L 204.5 205 Z " /><path fill="rgb(237,237,237)" stroke="rgb(237,237,237)" stroke-width="1" opacity="0.8588235294117647" d="M 172.5 207 L 170.5 210 L 172.5 207 Z " /><path fill="rgb(237,237,237)" stroke="rgb(237,237,237)" stroke-width="1" opacity="0.8588235294117647" d="M 168.5 210 L 167 212.5 Q 167.8 214.8 165.5 214 L 164 214.5 L 168.5 210 Z " /><path fill="rgb(237,237,237)" stroke="rgb(237,237,237)" stroke-width="1" opacity="0.8588235294117647" d="M 371.5 210 L 372 213.5 L 371 213.5 L 371.5 210 Z " /><path fill="rgb(237,237,237)" stroke="rgb(237,237,237)" stroke-width="1" opacity="0.8588235294117647" d="M 162.5 215 L 162 216.5 Q 162.8 218.8 160.5 218 L 149 228.5 L 151.5 225 L 162.5 215 Z " /><path fill="rgb(237,237,237)" stroke="rgb(237,237,237)" stroke-width="1" opacity="0.8588235294117647" d="M 191.5 216 L 188.5 220 L 191.5 216 Z " /><path fill="rgb(237,237,237)" stroke="rgb(237,237,237)" stroke-width="1" opacity="0.8588235294117647" d="M 370.5 216 L 371 218.5 L 370 218.5 L 370.5 216 Z " /><path fill="rgb(237,237,237)" stroke="rgb(237,237,237)" stroke-width="1" opacity="0.8588235294117647" d="M 186.5 220 L 182.5 225 L 182 223.5 L 186.5 220 Z " /><path fill="rgb(237,237,237)" stroke="rgb(237,237,237)" stroke-width="1" opacity="0.8588235294117647" d="M 368.5 223 L 369 225.5 L 368 225.5 L 368.5 223 Z " /><path fill="rgb(237,237,237)" stroke="rgb(237,237,237)" stroke-width="1" opacity="0.8588235294117647" d="M 179.5 225 L 180 226.5 L 163.5 244 L 163 242.5 L 166 241 L 171 233 L 179 226.5 L 179.5 225 Z " /><path fill="rgb(237,237,237)" stroke="rgb(237,237,237)" stroke-width="1" opacity="0.8588235294117647" d="M 147.5 230 L 142 236.5 Q 142.8 238.8 140.5 238 L 147.5 230 Z " /><path fill="rgb(237,237,237)" stroke="rgb(237,237,237)" stroke-width="1" opacity="0.8588235294117647" d="M 276.5 235 L 275.5 237 L 276.5 235 Z " /><path fill="rgb(237,237,237)" stroke="rgb(237,237,237)" stroke-width="1" opacity="0.8588235294117647" d="M 273.5 237 L 270.5 241 L 265.5 244 L 266.5 242 L 273.5 237 Z " /><path fill="rgb(237,237,237)" stroke="rgb(237,237,237)" stroke-width="1" opacity="0.8588235294117647" d="M 363.5 237 L 363 238.5 L 362.5 240 L 362 238.5 L 363.5 237 Z " /><path fill="rgb(237,237,237)" stroke="rgb(237,237,237)" stroke-width="1" opacity="0.8588235294117647" d="M 138.5 240 L 138 241.5 Q 138.8 243.8 136.5 243 L 135 243.5 L 138.5 240 Z " /><path fill="rgb(237,237,237)" stroke="rgb(237,237,237)" stroke-width="1" opacity="0.8588235294117647" d="M 263.5 244 L 261.5 247 L 252.5 252 L 253.5 250 L 263.5 244 Z " /><path fill="rgb(237,237,237)" stroke="rgb(237,237,237)" stroke-width="1" opacity="0.8588235294117647" d="M 134.5 245 L 134 246.5 L 126.5 258 L 127 256.5 L 134.5 245 Z " /><path fill="rgb(237,237,237)" stroke="rgb(237,237,237)" stroke-width="1" opacity="0.8588235294117647" d="M 161 245 L 163 245.5 L 160 247.5 L 161 245 Z " /><path fill="rgb(237,237,237)" stroke="rgb(237,237,237)" stroke-width="1" opacity="0.8588235294117647" d="M 359.5 245 L 359 246.5 L 358.5 248 L 358 246.5 L 359.5 245 Z " /><path fill="rgb(237,237,237)" stroke="rgb(237,237,237)" stroke-width="1" opacity="0.8588235294117647" d="M 159.5 249 L 159 250.5 L 157.5 253 L 158 251.5 L 159.5 249 Z " /><path fill="rgb(237,237,237)" stroke="rgb(237,237,237)" stroke-width="1" opacity="0.8588235294117647" d="M 356.5 251 L 355 253.5 L 352.5 258 L 353 256.5 L 356.5 251 Z " /><path fill="rgb(237,237,237)" stroke="rgb(237,237,237)" stroke-width="1" opacity="0.8588235294117647" d="M 248.5 253 L 247.5 255 L 248.5 253 Z " /><path fill="rgb(237,237,237)" stroke="rgb(237,237,237)" stroke-width="1" opacity="0.8588235294117647" d="M 156.5 254 L 157 255.5 L 155.5 258 L 155 256.5 L 156.5 254 Z " /><path fill="rgb(237,237,237)" stroke="rgb(237,237,237)" stroke-width="1" opacity="0.8588235294117647" d="M 125.5 259 L 126 261.5 L 123 263.5 L 125.5 259 Z " /><path fill="rgb(237,237,237)" stroke="rgb(237,237,237)" stroke-width="1" opacity="0.8588235294117647" d="M 351.5 259 L 350 261.5 L 342.5 272 L 345 268.5 L 351.5 259 Z " /><path fill="rgb(237,237,237)" stroke="rgb(237,237,237)" stroke-width="1" opacity="0.8588235294117647" d="M 235.5 260 L 236.5 361 L 239.5 359 L 238.5 361 L 235 362 L 235.5 260 Z " /><path fill="rgb(237,237,237)" stroke="rgb(237,237,237)" stroke-width="1" opacity="0.8588235294117647" d="M 122.5 265 L 123 267.5 L 121.5 270 L 121 268.5 L 122.5 265 Z " /><path fill="rgb(237,237,237)" stroke="rgb(237,237,237)" stroke-width="1" opacity="0.8588235294117647" d="M 154.5 269 L 156 271.5 L 154 270.5 L 154.5 269 Z " /><path fill="rgb(237,237,237)" stroke="rgb(237,237,237)" stroke-width="1" opacity="0.8588235294117647" d="M 211.5 270 Q 213.8 269.3 213 271.5 L 206.5 277 L 208.5 274 L 212 271.5 L 211.5 270 Z " /><path fill="rgb(237,237,237)" stroke="rgb(237,237,237)" stroke-width="1" opacity="0.8588235294117647" d="M 120.5 271 L 121 273.5 L 120 273.5 L 120.5 271 Z " /><path fill="rgb(237,237,237)" stroke="rgb(237,237,237)" stroke-width="1" opacity="0.8588235294117647" d="M 341.5 273 L 339.5 276 L 341.5 273 Z " /><path fill="rgb(237,237,237)" stroke="rgb(237,237,237)" stroke-width="1" opacity="0.8588235294117647" d="M 119.5 275 L 120 279.5 L 119 279.5 L 119.5 275 Z " /><path fill="rgb(237,237,237)" stroke="rgb(237,237,237)" stroke-width="1" opacity="0.8588235294117647" d="M 161.5 276 L 165 277.5 L 162.5 278 L 161.5 276 Z " /><path fill="rgb(237,237,237)" stroke="rgb(237,237,237)" stroke-width="1" opacity="0.8588235294117647" d="M 191.5 276 L 194 276.5 L 191.5 277 L 191.5 276 Z " /><path fill="rgb(237,237,237)" stroke="rgb(237,237,237)" stroke-width="1" opacity="0.8588235294117647" d="M 337.5 276 L 339 277.5 L 335.5 281 L 338 277.5 L 337.5 276 Z " /><path fill="rgb(237,237,237)" stroke="rgb(237,237,237)" stroke-width="1" opacity="0.8588235294117647" d="M 185.5 277 L 189 277.5 L 185.5 278 L 185.5 277 Z " /><path fill="rgb(237,237,237)" stroke="rgb(237,237,237)" stroke-width="1" opacity="0.8588235294117647" d="M 166.5 278 L 182 278.5 L 166.5 279 L 166.5 278 Z " /><path fill="rgb(237,237,237)" stroke="rgb(237,237,237)" stroke-width="1" opacity="0.8588235294117647" d="M 203.5 278 L 202.5 280 L 197.5 283 L 199.5 280 L 203.5 278 Z " /><path fill="rgb(237,237,237)" stroke="rgb(237,237,237)" stroke-width="1" opacity="0.8588235294117647" d="M 119.5 282 Q 120.5 292 127.5 296 L 130 297.5 L 128.5 297 L 123 293.5 L 119 285.5 L 119.5 282 Z " /><path fill="rgb(237,237,237)" stroke="rgb(237,237,237)" stroke-width="1" opacity="0.8588235294117647" d="M 333.5 282 L 334 283.5 L 326.5 290 L 326.5 289 L 330 286.5 L 332 283.5 L 333.5 282 Z " /><path fill="rgb(237,237,237)" stroke="rgb(237,237,237)" stroke-width="1" opacity="0.8588235294117647" d="M 194.5 283 L 196 283.5 L 190.5 287 L 191.5 285 L 194.5 283 Z " /><path fill="rgb(237,237,237)" stroke="rgb(237,237,237)" stroke-width="1" opacity="0.8588235294117647" d="M 179.5 291 L 181 291.5 L 177.5 293 L 177.5 292 L 179.5 291 Z " /><path fill="rgb(237,237,237)" stroke="rgb(237,237,237)" stroke-width="1" opacity="0.8588235294117647" d="M 325.5 291 L 324.5 293 L 325.5 291 Z " /><path fill="rgb(237,237,237)" stroke="rgb(237,237,237)" stroke-width="1" opacity="0.8588235294117647" d="M 323.5 294 L 311.5 307 L 310 306.5 L 312 306 L 312 304 Q 314.7 305.1 314 302.5 L 323.5 294 Z " /><path fill="rgb(237,237,237)" stroke="rgb(237,237,237)" stroke-width="1" opacity="0.8588235294117647" d="M 155.5 298 L 154.5 300 L 150 299.5 L 155.5 298 Z " /><path fill="rgb(237,237,237)" stroke="rgb(237,237,237)" stroke-width="1" opacity="0.8588235294117647" d="M 135.5 299 L 138 299.5 L 135.5 300 L 135.5 299 Z " /><path fill="rgb(237,237,237)" stroke="rgb(237,237,237)" stroke-width="1" opacity="0.8588235294117647" d="M 307 308 L 309 308.5 L 295.5 321 L 300.5 315 L 307 309.5 L 307 308 Z " /><path fill="rgb(237,237,237)" stroke="rgb(237,237,237)" stroke-width="1" opacity="0.8588235294117647" d="M 293.5 321 L 289.5 326 L 276.5 336 L 276 334 L 280.5 332 L 293.5 321 Z " /><path fill="rgb(237,237,237)" stroke="rgb(237,237,237)" stroke-width="1" opacity="0.8588235294117647" d="M 274.5 336 L 273.5 338 L 269.5 341 L 269 339.5 L 274.5 336 Z " /><path fill="rgb(237,237,237)" stroke="rgb(237,237,237)" stroke-width="1" opacity="0.8588235294117647" d="M 266.5 341 L 268 341.5 L 263.5 345 L 266.5 341 Z " /><path fill="rgb(237,237,237)" stroke="rgb(237,237,237)" stroke-width="1" opacity="0.8588235294117647" d="M 261.5 345 L 260.5 347 L 261.5 345 Z " /><path fill="rgb(237,237,237)" stroke="rgb(237,237,237)" stroke-width="1" opacity="0.8588235294117647" d="M 258.5 347 L 257.5 349 L 248.5 354 L 248.5 353 L 258.5 347 Z " /><path fill="rgb(237,237,237)" stroke="rgb(237,237,237)" stroke-width="1" opacity="0.8588235294117647" d="M 244.5 356 L 243.5 358 L 241.5 359 L 242.5 357 L 244.5 356 Z " /><path fill="rgb(254,254,254)" stroke="rgb(254,254,254)" stroke-width="1" opacity="0.996078431372549" d="M 298.5 150 L 322.5 150 L 332.5 152 Q 351.4 157.1 362 170.5 L 371 188.5 L 372 193.5 L 372 209.5 L 367 229.5 L 357 250.5 L 335 282 L 332 283.5 L 330 286.5 L 326 289.5 L 326.5 291 L 324 292.5 L 316.5 301 L 314 302.5 Q 314.7 305.1 312 304 L 312 306 L 310 306 L 310 308 Q 306.3 306.5 307 309.5 L 284.5 329 L 276 334 Q 277.1 336.7 274.5 336 L 269 339.5 Q 269.8 342.1 266.5 341 Q 258.8 349 248 353 Q 249.1 355.7 246.5 355 L 236.5 361 L 236 260 L 261.5 247 L 286 230 Q 284.9 227.3 287.5 228 L 297 219.5 L 299.5 216 Q 301.8 216.8 301 214.5 L 306 211 L 317 192.5 L 319 183.5 L 314.5 175 L 305.5 171 L 288.5 171 L 272.5 175 L 271.5 174 L 267.5 176 L 254.5 180 L 228.5 192 L 197 211.5 Q 197.8 213.8 195.5 213 L 193 214 Q 194.1 216.7 191.5 216 L 182 223.5 L 180.5 226 L 179 225.5 L 172.5 233 Q 170.3 232.3 171 234.5 L 166 241 L 163 242.5 L 163 245 Q 160.3 243.9 161 246.5 L 153 262.5 L 154 264.5 L 154 266.5 L 154 270.5 L 156 274 L 166.5 279 L 181.5 279 L 182.5 278 L 193.5 277 L 211.5 271 L 209.5 274 L 189.5 287 L 173.5 294 L 172 293.5 Q 172.8 296.1 169.5 295 L 156.5 299 L 154.5 299 L 138.5 300 L 130.5 298 L 122 290.5 L 119 280.5 L 123 264.5 L 136.5 243 Q 138.8 243.8 138 241.5 L 140.5 238 Q 142.8 238.8 142 236.5 L 148 229 L 162 218 L 163.5 215 L 167 214 L 169.5 210 L 178 204.5 Q 177.3 202.3 179.5 203 L 214.5 180 L 216 180.5 L 217.5 178 L 237.5 168 L 265.5 157 L 269.5 157 L 272.5 155 L 290.5 151 L 292.5 151 Q 297.3 152.3 298.5 150 Z " /></svg>